<svg xmlns="http://www.w3.org/2000/svg" xmlns:svg="http://www.w3.org/2000/svg" id="svg5234" width="512" height="512" version="1.1"><metadata id="metadata5239"/><g id="layer1" transform="translate(0,-540.36218)"><circle id="circle589" cx="646.132" cy="635.794" r="6.256" d="m 652.38802,635.79401 c 0,3.45509 -2.80091,6.256 -6.256,6.256 -3.45509,0 -6.256,-2.80091 -6.256,-6.256 0,-3.4551 2.80091,-6.256 6.256,-6.256 3.45509,0 6.256,2.8009 6.256,6.256 z" transform="matrix(6.3393056,5.8353339,-5.8353339,6.3393056,-159.33502,-6909.5045)" style="fill:#333;fill-opacity:.60000002"/><path style="fill:#333;fill-opacity:.60000002" id="path592" d="m 329.84511,712.88957 94.41129,86.90569 37.50952,-40.7491 19.81523,143.41595 -144.8489,-7.58367 37.50951,-40.74901 -94.4113,-86.90561 c -29.96582,-27.58363 -75.37686,-27.1673 -101.22744,0.91581 -25.86213,28.09578 -67.57089,73.68026 -92.97266,100.96422 -8.886431,-6.75238 -47.685611,-43.82428 -54.36407,-49.21773 41.50396,-45.08086 39.562743,-43.70607 93.00273,-101.76138 53.41664,-58.02999 145.65081,-60.39684 205.57626,-5.23543 z"/></g></svg>